<mxfile host="app.diagrams.net" agent="Mozilla/5.0 (X11; Linux x86_64) AppleWebKit/537.36 (KHTML, like Gecko) Chrome/136.0.0.0 Safari/537.36" version="27.0.5">
  <diagram name="Page-1" id="Dxg_xmGGAu3w0QZ8FGFV">
    <mxGraphModel dx="978" dy="939" grid="0" gridSize="10" guides="1" tooltips="1" connect="1" arrows="1" fold="1" page="0" pageScale="1" pageWidth="850" pageHeight="1100" math="0" shadow="0">
      <root>
        <mxCell id="0" />
        <mxCell id="1" parent="0" />
        <mxCell id="Z3Y86SvKJl30hB4F4vCW-1" value="" style="rounded=0;whiteSpace=wrap;html=1;fillColor=none;" vertex="1" parent="1">
          <mxGeometry x="1701" y="495.75" width="371" height="375" as="geometry" />
        </mxCell>
        <mxCell id="Z3Y86SvKJl30hB4F4vCW-4" style="edgeStyle=orthogonalEdgeStyle;rounded=0;orthogonalLoop=1;jettySize=auto;html=1;exitX=0.75;exitY=0;exitDx=0;exitDy=0;entryX=0.25;entryY=0;entryDx=0;entryDy=0;dashed=1;" edge="1" parent="1" source="AxP-uktUpImJo1u0Vmef-32" target="Z3Y86SvKJl30hB4F4vCW-1">
          <mxGeometry relative="1" as="geometry">
            <Array as="points">
              <mxPoint x="1405" y="342" />
              <mxPoint x="1794" y="342" />
            </Array>
          </mxGeometry>
        </mxCell>
        <mxCell id="AxP-uktUpImJo1u0Vmef-32" value="&lt;font style=&quot;font-size: 72px;&quot;&gt;FPGA&lt;/font&gt;" style="rounded=0;whiteSpace=wrap;html=1;fillColor=none;" parent="1" vertex="1">
          <mxGeometry x="1030" y="410" width="500" height="540" as="geometry" />
        </mxCell>
        <mxCell id="Kp2M0RBFNwegHdnX3cKo-7" value="" style="whiteSpace=wrap;html=1;aspect=fixed;" parent="1" vertex="1">
          <mxGeometry x="2438" y="381" width="160" height="160" as="geometry" />
        </mxCell>
        <mxCell id="Kp2M0RBFNwegHdnX3cKo-8" value="" style="verticalLabelPosition=bottom;verticalAlign=top;html=1;shape=mxgraph.basic.diag_round_rect;dx=6;whiteSpace=wrap;" parent="1" vertex="1">
          <mxGeometry x="2478" y="416" width="85" height="85" as="geometry" />
        </mxCell>
        <mxCell id="Kp2M0RBFNwegHdnX3cKo-15" value="" style="ellipse;whiteSpace=wrap;html=1;aspect=fixed;" parent="1" vertex="1">
          <mxGeometry x="1897" y="658.25" width="50" height="50" as="geometry" />
        </mxCell>
        <mxCell id="Kp2M0RBFNwegHdnX3cKo-16" value="" style="endArrow=none;html=1;rounded=0;entryX=1;entryY=0;entryDx=0;entryDy=0;exitX=0;exitY=1;exitDx=0;exitDy=0;" parent="1" source="Kp2M0RBFNwegHdnX3cKo-15" target="Kp2M0RBFNwegHdnX3cKo-15" edge="1">
          <mxGeometry width="50" height="50" relative="1" as="geometry">
            <mxPoint x="1897" y="711" as="sourcePoint" />
            <mxPoint x="1947" y="661" as="targetPoint" />
          </mxGeometry>
        </mxCell>
        <mxCell id="Kp2M0RBFNwegHdnX3cKo-18" value="" style="pointerEvents=1;verticalLabelPosition=bottom;shadow=0;dashed=0;align=center;html=1;verticalAlign=top;shape=mxgraph.electrical.signal_sources.source;aspect=fixed;points=[[0.5,0,0],[1,0.5,0],[0.5,1,0],[0,0.5,0]];elSignalType=ac;" parent="1" vertex="1">
          <mxGeometry x="1897" y="761" width="50" height="50" as="geometry" />
        </mxCell>
        <mxCell id="Kp2M0RBFNwegHdnX3cKo-19" value="" style="endArrow=none;html=1;rounded=0;entryX=0.5;entryY=1;entryDx=0;entryDy=0;exitX=0.5;exitY=0;exitDx=0;exitDy=0;exitPerimeter=0;" parent="1" source="Kp2M0RBFNwegHdnX3cKo-18" target="Kp2M0RBFNwegHdnX3cKo-15" edge="1">
          <mxGeometry width="50" height="50" relative="1" as="geometry">
            <mxPoint x="1997" y="731" as="sourcePoint" />
            <mxPoint x="2047" y="681" as="targetPoint" />
          </mxGeometry>
        </mxCell>
        <mxCell id="Kp2M0RBFNwegHdnX3cKo-21" value="Filter" style="whiteSpace=wrap;html=1;aspect=fixed;" parent="1" vertex="1">
          <mxGeometry x="1983" y="658.25" width="50" height="50" as="geometry" />
        </mxCell>
        <mxCell id="Kp2M0RBFNwegHdnX3cKo-22" value="" style="endArrow=none;html=1;rounded=0;entryX=0;entryY=0.5;entryDx=0;entryDy=0;exitX=1;exitY=0.5;exitDx=0;exitDy=0;" parent="1" source="Kp2M0RBFNwegHdnX3cKo-15" target="Kp2M0RBFNwegHdnX3cKo-21" edge="1">
          <mxGeometry width="50" height="50" relative="1" as="geometry">
            <mxPoint x="1927" y="741" as="sourcePoint" />
            <mxPoint x="1977" y="691" as="targetPoint" />
          </mxGeometry>
        </mxCell>
        <mxCell id="Kp2M0RBFNwegHdnX3cKo-24" value="" style="endArrow=none;html=1;rounded=0;entryX=0;entryY=0.5;entryDx=0;entryDy=0;exitX=1;exitY=0.5;exitDx=0;exitDy=0;" parent="1" source="Kp2M0RBFNwegHdnX3cKo-21" target="Kp2M0RBFNwegHdnX3cKo-35" edge="1">
          <mxGeometry width="50" height="50" relative="1" as="geometry">
            <mxPoint x="2016" y="755.5" as="sourcePoint" />
            <mxPoint x="2168.5" y="690.5" as="targetPoint" />
          </mxGeometry>
        </mxCell>
        <mxCell id="Kp2M0RBFNwegHdnX3cKo-29" value="Mix&lt;span style=&quot;background-color: transparent; color: light-dark(rgb(0, 0, 0), rgb(255, 255, 255));&quot;&gt;er&lt;/span&gt;" style="text;strokeColor=none;align=center;fillColor=none;html=1;verticalAlign=middle;whiteSpace=wrap;rounded=0;" parent="1" vertex="1">
          <mxGeometry x="1892" y="621" width="60" height="30" as="geometry" />
        </mxCell>
        <mxCell id="Kp2M0RBFNwegHdnX3cKo-30" value="OSC" style="text;strokeColor=none;align=center;fillColor=none;html=1;verticalAlign=middle;whiteSpace=wrap;rounded=0;" parent="1" vertex="1">
          <mxGeometry x="1892" y="811" width="60" height="30" as="geometry" />
        </mxCell>
        <mxCell id="Kp2M0RBFNwegHdnX3cKo-31" value="Data" style="text;strokeColor=none;align=center;fillColor=none;html=1;verticalAlign=middle;whiteSpace=wrap;rounded=0;" parent="1" vertex="1">
          <mxGeometry x="1533" y="670" width="60" height="30" as="geometry" />
        </mxCell>
        <mxCell id="Kp2M0RBFNwegHdnX3cKo-41" style="edgeStyle=orthogonalEdgeStyle;rounded=0;orthogonalLoop=1;jettySize=auto;html=1;exitX=1;exitY=0.5;exitDx=0;exitDy=0;entryX=0.5;entryY=1;entryDx=0;entryDy=0;" parent="1" source="Kp2M0RBFNwegHdnX3cKo-35" target="Kp2M0RBFNwegHdnX3cKo-7" edge="1">
          <mxGeometry relative="1" as="geometry">
            <mxPoint x="2711" y="500.5" as="targetPoint" />
          </mxGeometry>
        </mxCell>
        <mxCell id="Kp2M0RBFNwegHdnX3cKo-35" value="&amp;nbsp; &amp;nbsp;PA" style="triangle;whiteSpace=wrap;html=1;align=left;" parent="1" vertex="1">
          <mxGeometry x="2299" y="647.5" width="60" height="70" as="geometry" />
        </mxCell>
        <mxCell id="Kp2M0RBFNwegHdnX3cKo-37" value="" style="endArrow=none;html=1;rounded=0;entryX=0;entryY=0;entryDx=0;entryDy=0;exitX=1;exitY=1;exitDx=0;exitDy=0;" parent="1" source="Kp2M0RBFNwegHdnX3cKo-15" target="Kp2M0RBFNwegHdnX3cKo-15" edge="1">
          <mxGeometry width="50" height="50" relative="1" as="geometry">
            <mxPoint x="1914" y="714" as="sourcePoint" />
            <mxPoint x="1950" y="678" as="targetPoint" />
          </mxGeometry>
        </mxCell>
        <mxCell id="Kp2M0RBFNwegHdnX3cKo-42" value="" style="verticalLabelPosition=bottom;shadow=0;dashed=0;align=center;html=1;verticalAlign=top;shape=mxgraph.electrical.radio.aerial_-_antenna_1;" parent="1" vertex="1">
          <mxGeometry x="2618" y="423.5" width="80" height="100" as="geometry" />
        </mxCell>
        <mxCell id="Uzrf_a8ZLlym3C8D79bP-2" style="edgeStyle=orthogonalEdgeStyle;rounded=0;orthogonalLoop=1;jettySize=auto;html=1;exitX=1;exitY=0.25;exitDx=0;exitDy=0;entryX=0;entryY=0.25;entryDx=0;entryDy=0;" parent="1" source="Kp2M0RBFNwegHdnX3cKo-48" target="Kp2M0RBFNwegHdnX3cKo-52" edge="1">
          <mxGeometry relative="1" as="geometry" />
        </mxCell>
        <mxCell id="Uzrf_a8ZLlym3C8D79bP-3" style="edgeStyle=orthogonalEdgeStyle;rounded=0;orthogonalLoop=1;jettySize=auto;html=1;exitX=1;exitY=0.75;exitDx=0;exitDy=0;entryX=0;entryY=0.75;entryDx=0;entryDy=0;" parent="1" source="Kp2M0RBFNwegHdnX3cKo-48" target="Kp2M0RBFNwegHdnX3cKo-52" edge="1">
          <mxGeometry relative="1" as="geometry" />
        </mxCell>
        <mxCell id="Kp2M0RBFNwegHdnX3cKo-48" value="DSP" style="rounded=0;whiteSpace=wrap;html=1;" parent="1" vertex="1">
          <mxGeometry x="1440" y="611.5" width="60" height="142.5" as="geometry" />
        </mxCell>
        <mxCell id="Uzrf_a8ZLlym3C8D79bP-4" style="edgeStyle=orthogonalEdgeStyle;rounded=0;orthogonalLoop=1;jettySize=auto;html=1;exitX=0.5;exitY=1;exitDx=0;exitDy=0;entryX=0;entryY=0.5;entryDx=0;entryDy=0;" parent="1" source="Kp2M0RBFNwegHdnX3cKo-50" target="Kp2M0RBFNwegHdnX3cKo-15" edge="1">
          <mxGeometry relative="1" as="geometry" />
        </mxCell>
        <mxCell id="Kp2M0RBFNwegHdnX3cKo-50" value="" style="verticalLabelPosition=bottom;verticalAlign=top;html=1;shape=offPageConnector;rounded=0;size=0.3125;rotation=-90;" parent="1" vertex="1">
          <mxGeometry x="1749" y="652.25" width="50" height="62" as="geometry" />
        </mxCell>
        <mxCell id="Kp2M0RBFNwegHdnX3cKo-52" value="ADC" style="text;strokeColor=none;align=center;fillColor=none;html=1;verticalAlign=middle;whiteSpace=wrap;rounded=0;" parent="1" vertex="1">
          <mxGeometry x="1739" y="668.25" width="60" height="30" as="geometry" />
        </mxCell>
        <mxCell id="Kp2M0RBFNwegHdnX3cKo-53" value="I" style="text;strokeColor=none;align=center;fillColor=none;html=1;verticalAlign=middle;whiteSpace=wrap;rounded=0;" parent="1" vertex="1">
          <mxGeometry x="1544" y="617.5" width="60" height="30" as="geometry" />
        </mxCell>
        <mxCell id="Kp2M0RBFNwegHdnX3cKo-54" value="Q" style="text;strokeColor=none;align=center;fillColor=none;html=1;verticalAlign=middle;whiteSpace=wrap;rounded=0;" parent="1" vertex="1">
          <mxGeometry x="1544" y="713.75" width="60" height="30" as="geometry" />
        </mxCell>
        <mxCell id="Z3Y86SvKJl30hB4F4vCW-2" value="&lt;font style=&quot;font-size: 32px;&quot;&gt;AD9360&lt;/font&gt;" style="text;html=1;align=center;verticalAlign=middle;whiteSpace=wrap;rounded=0;" vertex="1" parent="1">
          <mxGeometry x="1739" y="511" width="60" height="30" as="geometry" />
        </mxCell>
        <mxCell id="Z3Y86SvKJl30hB4F4vCW-5" value="&lt;span style=&quot;font-size: 32px;&quot;&gt;?&lt;/span&gt;" style="text;html=1;align=center;verticalAlign=middle;whiteSpace=wrap;rounded=0;" vertex="1" parent="1">
          <mxGeometry x="1671" y="288" width="60" height="30" as="geometry" />
        </mxCell>
      </root>
    </mxGraphModel>
  </diagram>
</mxfile>
